<?xml version="1.0" standalone="no"?>
<!DOCTYPE svg PUBLIC "-//W3C//DTD SVG 20010904//EN"
 "http://www.w3.org/TR/2001/REC-SVG-20010904/DTD/svg10.dtd">
<svg version="1.0" xmlns="http://www.w3.org/2000/svg"
 width="260.000000pt" height="260.000000pt" viewBox="0 0 260.000000 260.000000"
 preserveAspectRatio="xMidYMid meet">
<metadata>
Created by potrace 1.11, written by Peter Selinger 2001-2013
</metadata>
<g transform="translate(0.000000,260.000000) scale(0.100000,-0.100000)"
fill="#000000" stroke="none">
<path d="M195 1878 c-2 -7 -47 -229 -100 -493 l-95 -480 0 -208 0 -209 283 4
c308 5 339 10 470 70 87 40 173 129 205 212 48 126 37 260 -29 339 -30 36
-132 97 -164 97 -32 0 -12 16 60 49 132 59 225 187 225 310 0 160 -102 267
-292 305 -101 21 -556 23 -563 4z m515 -195 c66 -30 92 -63 98 -122 7 -72 -5
-117 -40 -157 -64 -72 -174 -104 -363 -104 -87 0 -96 2 -91 18 3 9 22 102 42
206 l37 188 136 -4 c110 -3 145 -8 181 -25z m-57 -576 c77 -38 107 -88 107
-178 0 -80 -24 -133 -78 -180 -68 -58 -132 -73 -328 -77 l-171 -4 48 234 c27
128 49 235 49 236 0 2 71 2 158 0 149 -3 160 -5 215 -31z"/>
<path d="M1591 1468 c-93 -467 -104 -566 -77 -681 51 -218 193 -319 446 -319
132 1 214 24 298 86 56 41 129 131 165 201 39 78 81 226 127 451 l50 245 0
220 0 219 -69 0 -69 0 -10 -47 c-6 -27 -49 -239 -97 -472 -93 -462 -116 -535
-187 -616 -57 -65 -108 -89 -189 -89 -120 0 -203 52 -231 146 -29 96 -15 215
75 661 l84 417 -116 0 -117 0 -83 -422z"/>
</g>
</svg>
