<svg xmlns="http://www.w3.org/2000/svg" width="1690" height="370" viewBox="0 0 1690 370"><defs><filter id="t3mja" width="1736" height="386.3" x="-28" y="-28" filterUnits="userSpaceOnUse"><feOffset dx="10" dy="17.3" in="SourceGraphic" result="FeOffset1043Out"/><feGaussianBlur in="FeOffset1043Out" result="FeGaussianBlur1044Out" stdDeviation="8 8"/></filter><clipPath id="t3mjb"><path fill="#fff" d="M1668 139.999s-144-127.573-340-82c-196 45.573-320 246.463-620 252C408 315.538 2 2 2 2"/></clipPath><mask id="t3mjd" width="2" height="2" x="-1" y="-1"><path fill="#fff" d="M1168 100h33v33h-33z"/><path d="M1184.5 100c9.113 0 16.5 7.387 16.5 16.5 0 9.112-7.387 16.5-16.5 16.5s-16.5-7.388-16.5-16.5c0-9.113 7.387-16.5 16.5-16.5z"/></mask><filter id="t3mjc" width="167" height="174.3" x="1106" y="38" filterUnits="userSpaceOnUse"><feOffset dx="10" dy="17.3" in="SourceGraphic" result="FeOffset1061Out"/><feGaussianBlur in="FeOffset1061Out" result="FeGaussianBlur1062Out" stdDeviation="20.8 20.8"/></filter><mask id="t3mjf" width="2" height="2" x="-1" y="-1"><path fill="#fff" d="M808 278h33v33h-33z"/><path d="M824.5 278c9.113 0 16.5 7.387 16.5 16.5s-7.387 16.5-16.5 16.5-16.5-7.387-16.5-16.5 7.387-16.5 16.5-16.5z"/></mask><filter id="t3mje" width="167" height="174.3" x="746" y="216" filterUnits="userSpaceOnUse"><feOffset dx="10" dy="17.3" in="SourceGraphic" result="FeOffset1077Out"/><feGaussianBlur in="FeOffset1077Out" result="FeGaussianBlur1078Out" stdDeviation="20.8 20.8"/></filter><mask id="t3mjh" width="2" height="2" x="-1" y="-1"><path fill="#fff" d="M454 246h33v33h-33z"/><path d="M470.5 246c9.113 0 16.5 7.387 16.5 16.5s-7.387 16.5-16.5 16.5-16.5-7.387-16.5-16.5 7.387-16.5 16.5-16.5z"/></mask><filter id="t3mjg" width="167" height="174.3" x="392" y="184" filterUnits="userSpaceOnUse"><feOffset dx="10" dy="17.3" in="SourceGraphic" result="FeOffset1093Out"/><feGaussianBlur in="FeOffset1093Out" result="FeGaussianBlur1094Out" stdDeviation="20.8 20.8"/></filter></defs><g><g><g filter="url(#t3mja)"><path fill="none" stroke="#11182a" stroke-opacity=".14" stroke-width="3" d="M1668 139.999v0s-144-127.573-340-82c-196 45.573-320 246.463-620 252C408 315.538 2 2 2 2v0"/></g><path fill="none" stroke="#fefefe" stroke-miterlimit="50" stroke-width="6" d="M1668 139.999v0s-144-127.573-340-82c-196 45.573-320 246.463-620 252C408 315.538 2 2 2 2v0" clip-path="url(&quot;#t3mjb&quot;)"/></g><g opacity=".9"><g filter="url(#t3mjc)"><path fill="none" d="M1184.5 100c9.113 0 16.5 7.387 16.5 16.5 0 9.112-7.387 16.5-16.5 16.5s-16.5-7.388-16.5-16.5c0-9.113 7.387-16.5 16.5-16.5z" mask="url(&quot;#t3mjd&quot;)"/><path fill="#11182a" fill-opacity=".42" d="M1184.5 100c9.113 0 16.5 7.387 16.5 16.5 0 9.112-7.387 16.5-16.5 16.5s-16.5-7.388-16.5-16.5c0-9.113 7.387-16.5 16.5-16.5z"/></g><path fill="#fff" d="M1184.5 100c9.113 0 16.5 7.387 16.5 16.5 0 9.112-7.387 16.5-16.5 16.5s-16.5-7.388-16.5-16.5c0-9.113 7.387-16.5 16.5-16.5z"/></g><g opacity=".9"><g filter="url(#t3mje)"><path fill="none" d="M824.5 278c9.113 0 16.5 7.387 16.5 16.5s-7.387 16.5-16.5 16.5-16.5-7.387-16.5-16.5 7.387-16.5 16.5-16.5z" mask="url(&quot;#t3mjf&quot;)"/><path fill="#11182a" fill-opacity=".42" d="M824.5 278c9.113 0 16.5 7.387 16.5 16.5s-7.387 16.5-16.5 16.5-16.5-7.387-16.5-16.5 7.387-16.5 16.5-16.5z"/></g><path fill="#fff" d="M824.5 278c9.113 0 16.5 7.387 16.5 16.5s-7.387 16.5-16.5 16.5-16.5-7.387-16.5-16.5 7.387-16.5 16.5-16.5z"/></g><g opacity=".9"><g filter="url(#t3mjg)"><path fill="none" d="M470.5 246c9.113 0 16.5 7.387 16.5 16.5s-7.387 16.5-16.5 16.5-16.5-7.387-16.5-16.5 7.387-16.5 16.5-16.5z" mask="url(&quot;#t3mjh&quot;)"/><path fill="#11182a" fill-opacity=".42" d="M470.5 246c9.113 0 16.5 7.387 16.5 16.5s-7.387 16.5-16.5 16.5-16.5-7.387-16.5-16.5 7.387-16.5 16.5-16.5z"/></g><path fill="#fff" d="M470.5 246c9.113 0 16.5 7.387 16.5 16.5s-7.387 16.5-16.5 16.5-16.5-7.387-16.5-16.5 7.387-16.5 16.5-16.5z"/></g></g></svg>